<svg xmlns="http://www.w3.org/2000/svg" version="1.1" xmlns:xlink="http://www.w3.org/1999/xlink" width="502.01954678288365" height="200" viewBox="-6.920000076293945 11.720000267028809 144.1199951171875 51.39999771118164"><path d="M8.56 29.48L8.56 29.48Q9.76 25.76 11.44 21.56L11.44 21.56Q11.60 21.16 12.58 19.22Q13.56 17.28 14.02 15.80Q14.48 14.32 14.28 13.24L14.28 13.24Q14.24 13 14.08 12.90Q13.92 12.80 13.62 12.90Q13.32 13 13.10 13.10Q12.88 13.20 12.40 13.48L12.40 13.48L11.84 13.76Q8.40 17.60 6.02 22.26Q3.64 26.92 1.52 33L1.52 33L1.36 33.48Q5.56 30.96 8.56 29.48ZM8.36 30.16L8.36 30.16Q5.24 31.60 1.16 34.04L1.16 34.04L0.88 34.96Q4.44 33.56 7.60 32.76L7.60 32.76Q7.92 31.52 8.36 30.16ZM0.24 34.60L-2.92 36.52L0 35.28L0.24 34.60ZM1.84 42.08L1.28 42.68L0.72 43.20L-0.20 44.08Q-0.64 44.52-1.14 44.86Q-1.64 45.20-1.84 45.12L-1.84 45.12Q-2.08 45-2.08 43.98Q-2.08 42.96-1.84 41.80L-1.84 41.80Q-1.48 39.92-0.24 36.08L-0.24 36.08Q-3.16 37.20-6.92 38.92L-6.92 38.92L-5.80 37.80L0.44 34.04Q2.68 27.60 5.26 22.70Q7.84 17.80 11.68 13.84L11.68 13.84L12.80 12.72L13.36 12.44L13.84 12.16L14.32 11.92Q14.56 11.80 14.72 11.76Q14.88 11.72 15.04 11.72Q15.20 11.72 15.28 11.82Q15.36 11.92 15.40 12.12L15.40 12.12Q15.60 13.20 15.14 14.68Q14.68 16.16 13.70 18.10Q12.72 20.04 12.56 20.44L12.56 20.44Q10.68 25.08 9.48 29.04L9.48 29.04Q11.40 28.16 13.24 27.48L13.24 27.48Q14.32 27.08 15.58 26.74Q16.84 26.40 18.40 26.04Q19.96 25.68 20.80 25.44L20.80 25.44L19.68 26.56Q18.84 26.80 17.28 27.16Q15.72 27.52 14.46 27.86Q13.20 28.20 12.12 28.60L12.12 28.60Q10.72 29.12 9.24 29.76L9.24 29.76L8.48 32.52Q12.60 31.52 16.56 31.36L16.56 31.36Q25.24 31 26.24 33.44L26.24 33.44Q27.24 35.96 21.32 41.72L21.32 41.72L21.20 41.84Q26.28 36.60 25.02 34.36Q23.76 32.12 15.44 32.48L15.44 32.48Q11.92 32.64 8.28 33.44L8.28 33.44Q7.64 36.16 7.42 38.36Q7.20 40.56 7.44 42.52Q7.68 44.48 8.78 45.58Q9.88 46.68 11.76 46.68L11.76 46.68Q14.60 46.68 17.96 44.44L17.96 44.44Q18.48 44.08 19 43.68L19 43.68L20.20 42.64Q20.88 42.08 21.20 41.84L21.20 41.84L20.20 42.84L19.16 43.76L17.92 44.76Q17.36 45.20 16.84 45.56L16.84 45.56Q13.48 47.80 10.64 47.80L10.64 47.80Q9.04 47.80 8.02 46.98Q7 46.16 6.58 44.84Q6.16 43.52 6.18 41.62Q6.20 39.72 6.50 37.80Q6.80 35.88 7.36 33.64L7.36 33.64Q4.16 34.44 0.64 35.76L0.64 35.76Q-0.40 39.04-0.72 40.68L-0.72 40.68Q-0.96 41.84-0.96 42.86Q-0.96 43.88-0.72 44L-0.72 44Q-0.48 44.04 0 43.70Q0.48 43.36 0.92 42.96L0.92 42.96L1.84 42.08ZM23.68 62L22.56 63.12Q23.04 61.24 25.82 51.38Q28.60 41.52 29.80 36.20L29.80 36.20Q28.88 37.80 27.64 39.28L27.64 39.28L26.52 40.40Q25.72 39.72 25.54 38.48Q25.36 37.24 25.54 36.10Q25.72 34.96 25.60 33.72Q25.48 32.48 24.76 31.80L24.76 31.80Q24.68 32.20 24.48 34.44L24.48 34.44L23.36 35.56Q23.36 35.36 23.42 34.70Q23.48 34.04 23.52 33.76L23.52 33.76L23.64 33.04Q23.72 32.52 23.84 32.12Q23.96 31.72 24.16 31.32L24.16 31.32L25.28 30.20Q26.36 30.80 26.64 32.02Q26.92 33.24 26.72 34.46Q26.52 35.68 26.64 37.04Q26.76 38.40 27.52 39.16L27.52 39.16Q29.72 36.12 30.56 32.72L30.56 32.72L31.68 31.60Q31.48 32.68 31.20 33.84L31.20 33.84L30.72 36Q30.52 37 30.16 38.32L30.16 38.32L29.64 40.48L29.04 42.80L28.48 44.92L27.84 47.20Q27.36 48.88 27.22 49.34Q27.08 49.80 26.56 51.64Q26.04 53.48 25.96 53.80L25.96 53.80Q28.12 49.12 31.32 44.40L31.32 44.40L32.44 43.28Q26.20 52.56 23.68 62L23.68 62ZM37.08 36.64L35.96 37.76Q34.04 39.52 32.04 40.36L32.04 40.36Q30.20 41.16 30.36 39.92L30.36 39.92Q30.44 39 31.64 37.08L31.64 37.08L32.76 35.96Q30.44 39.72 32.20 39.52L32.20 39.52Q33.56 39.36 36.20 37.40L36.20 37.40Q36.80 36.16 35.36 36.20L35.36 36.20Q35 36.20 34.12 36.32L34.12 36.32Q33.52 36.40 33.28 36.40L33.28 36.40L34.40 35.28Q34.52 35.28 35.64 35.12L35.64 35.12Q34.84 33.92 32.76 35.96L32.76 35.96L33.28 35.44L33.96 34.76Q34.24 34.48 34.62 34.14Q35 33.80 35.32 33.68Q35.64 33.56 35.96 33.52Q36.28 33.48 36.56 33.74Q36.84 34 37 34.52L37 34.52L36.48 35.04Q37.24 35.04 37.44 35.34Q37.64 35.64 37.08 36.64L37.08 36.64ZM38.40 35.56L38.40 35.56L39.52 34.44Q38.88 38.16 39.32 38.56L39.32 38.56Q39.52 38.72 40.32 38.72L40.32 38.72Q41.28 37.36 42.68 34.80L42.68 34.80L43.80 33.68Q41.96 37.08 40.56 38.72L40.56 38.72L39.44 39.84Q39.20 39.80 39 39.84Q38.80 39.88 38.56 39.84Q38.32 39.80 38.20 39.68L38.20 39.68Q37.72 39.28 38.40 35.56ZM49.44 39.80L49.44 39.80Q49.96 39.08 50.08 38.64L50.08 38.64Q50.68 36.32 45.20 36.52L45.20 36.52Q44.84 37.84 44.72 38.82Q44.60 39.80 44.74 40.56Q44.88 41.32 45.36 41.52Q45.84 41.72 46.88 41.32Q47.92 40.92 49.44 39.80ZM41.16 36.84L42.28 35.72L44.96 34.72Q45.92 31.72 48.20 26.08Q50.48 20.44 51.40 17.64L51.40 17.64L52.52 16.52Q52.24 17.60 51.32 20.66Q50.40 23.72 49.92 25.82Q49.44 27.92 49.28 30.12L49.28 30.12L48.16 31.24Q48.36 28.48 49.24 25.12L49.24 25.12Q47 30.76 46 33.84L46 33.84L45.84 34.40Q49.36 33.16 52.20 32.76L52.20 32.76L51.08 33.88Q48.56 34.28 45.56 35.24L45.56 35.24L45.52 35.44Q46.60 35.32 47.68 35.38Q48.76 35.44 49.64 35.60Q50.52 35.76 50.96 36.26Q51.40 36.76 51.20 37.52L51.20 37.52Q51.12 37.80 50.96 38.08Q50.80 38.36 50.56 38.70Q50.32 39.04 50.20 39.24L50.20 39.24L49.08 40.36Q47.48 41.60 46.36 42.20Q45.24 42.80 44.64 42.72Q44.04 42.64 43.76 42.20Q43.48 41.76 43.54 40.82Q43.60 39.88 43.80 38.88Q44 37.88 44.40 36.56L44.40 36.56Q43.60 36.60 42.48 36.72Q41.36 36.84 41.16 36.84L41.16 36.84ZM72.56 29.48L72.56 29.48Q73.76 25.76 75.44 21.56L75.44 21.56Q75.60 21.16 76.58 19.22Q77.56 17.28 78.02 15.80Q78.48 14.32 78.28 13.24L78.28 13.24Q78.24 13 78.08 12.90Q77.92 12.80 77.62 12.90Q77.32 13 77.10 13.10Q76.88 13.20 76.40 13.48L76.40 13.48L75.84 13.76Q72.40 17.60 70.02 22.26Q67.64 26.92 65.52 33L65.52 33L65.36 33.48Q69.56 30.96 72.56 29.48ZM72.36 30.16L72.36 30.16Q69.24 31.60 65.16 34.04L65.16 34.04L64.88 34.96Q68.44 33.56 71.60 32.76L71.60 32.76Q71.92 31.52 72.36 30.16ZM64.24 34.60L61.08 36.52L64 35.28L64.24 34.60ZM65.84 42.08L65.28 42.68L64.72 43.20L63.80 44.08Q63.36 44.52 62.86 44.86Q62.36 45.20 62.16 45.12L62.16 45.12Q61.92 45 61.92 43.98Q61.92 42.96 62.16 41.80L62.16 41.80Q62.52 39.92 63.76 36.08L63.76 36.08Q60.84 37.20 57.08 38.92L57.08 38.92L58.20 37.80L64.44 34.04Q66.68 27.60 69.26 22.70Q71.84 17.80 75.68 13.84L75.68 13.84L76.80 12.72L77.36 12.44L77.84 12.16L78.32 11.92Q78.56 11.80 78.72 11.76Q78.88 11.72 79.04 11.72Q79.20 11.72 79.28 11.82Q79.36 11.92 79.40 12.12L79.40 12.12Q79.60 13.20 79.14 14.68Q78.68 16.16 77.70 18.10Q76.72 20.04 76.56 20.44L76.56 20.44Q74.68 25.08 73.48 29.04L73.48 29.04Q75.40 28.16 77.24 27.48L77.24 27.48Q78.32 27.08 79.58 26.74Q80.84 26.40 82.40 26.04Q83.96 25.68 84.80 25.44L84.80 25.44L83.68 26.56Q82.84 26.80 81.28 27.16Q79.72 27.52 78.46 27.86Q77.20 28.20 76.12 28.60L76.12 28.60Q74.72 29.12 73.24 29.76L73.24 29.76L72.48 32.52Q76.60 31.52 80.56 31.36L80.56 31.36Q89.24 31 90.24 33.44L90.24 33.44Q91.24 35.96 85.32 41.72L85.32 41.72L85.20 41.84Q90.28 36.60 89.02 34.36Q87.76 32.12 79.44 32.48L79.44 32.48Q75.92 32.64 72.28 33.44L72.28 33.44Q71.64 36.16 71.42 38.36Q71.20 40.56 71.44 42.52Q71.68 44.48 72.78 45.58Q73.88 46.68 75.76 46.68L75.76 46.68Q78.60 46.68 81.96 44.44L81.96 44.44Q82.48 44.08 83 43.68L83 43.68L84.20 42.64Q84.88 42.08 85.20 41.84L85.20 41.84L84.20 42.84L83.16 43.76L81.92 44.76Q81.36 45.20 80.84 45.56L80.84 45.56Q77.48 47.80 74.64 47.80L74.64 47.80Q73.04 47.80 72.02 46.98Q71 46.16 70.58 44.84Q70.16 43.52 70.18 41.62Q70.20 39.72 70.50 37.80Q70.80 35.88 71.36 33.64L71.36 33.64Q68.16 34.44 64.64 35.76L64.64 35.76Q63.60 39.04 63.28 40.68L63.28 40.68Q63.04 41.84 63.04 42.86Q63.04 43.88 63.28 44L63.28 44Q63.52 44.04 64 43.70Q64.48 43.36 64.92 42.96L64.92 42.96L65.84 42.08ZM92.72 31.16L90.64 32.68Q89.28 34.20 89.40 34.56L89.40 34.56Q89.76 35.60 91.36 36.80L91.36 36.80Q91.68 36.20 93.52 33.56L93.52 33.56Q93.56 33.48 94.32 32.44L94.32 32.44L95.68 30.48Q96.32 29.60 96.32 29.56L96.32 29.56Q96.24 29.20 95.08 29.72L95.08 29.72Q94.44 30 92.72 31.16L92.72 31.16ZM93.80 44.28L93.80 44.28Q90.32 49.08 89.28 52.12L89.28 52.12Q89.12 52.56 89.08 53.10Q89.04 53.64 89.04 54.34Q89.04 55.04 89 55.36L89 55.36Q94.12 49.64 93.80 44.28ZM89.60 40.04L88.32 40.40L89.44 39.28L90.12 39.08L90.56 38.20Q90.52 38.16 90.26 37.96Q90 37.76 89.94 37.72Q89.88 37.68 89.64 37.50Q89.40 37.32 89.32 37.22Q89.24 37.12 89.08 36.96Q88.92 36.80 88.82 36.68Q88.72 36.56 88.60 36.38Q88.48 36.20 88.40 36.04Q88.32 35.88 88.28 35.68L88.28 35.68Q88.24 35.56 88.36 35.30Q88.48 35.04 88.80 34.68L88.80 34.68L89.32 34.04L89.92 33.36Q90.24 33 90.32 32.92L90.32 32.92L91.44 31.80L92.20 31.24L93.08 30.56Q93.48 30.28 93.84 30.04L93.84 30.04Q95.56 28.88 96.20 28.60L96.20 28.60Q97.36 28.08 97.44 28.44L97.44 28.44Q97.44 28.48 96.80 29.36L96.80 29.36L95.44 31.32Q94.68 32.36 94.64 32.44L94.64 32.44Q93.04 34.76 92.70 35.30Q92.36 35.84 91.72 37.08L91.72 37.08Q92.52 37.72 93.04 38.24Q93.56 38.76 94.10 39.84Q94.64 40.92 94.84 42.32L94.84 42.32L94.88 42.44L96.48 40.20L97.60 39.08L94.88 42.80Q95.48 48.84 89 55.48L89 55.48L87.88 56.60Q87.92 56.24 87.90 55.54Q87.88 54.84 87.94 54.28Q88 53.72 88.16 53.24L88.16 53.24Q88.88 51.20 90.26 49Q91.64 46.80 93.76 43.92L93.76 43.92Q93.76 43.68 93.72 43.44L93.72 43.44Q93.44 41.60 92.74 40.48Q92.04 39.36 90.96 38.48L90.96 38.48L90.72 38.92L89.60 40.04ZM98.52 35.56L98.52 35.56L99.64 34.44Q99 38.16 99.44 38.56L99.44 38.56Q99.64 38.72 100.44 38.72L100.44 38.72Q101.40 37.36 102.80 34.80L102.80 34.80L103.92 33.68Q102.08 37.08 100.68 38.72L100.68 38.72L99.56 39.84Q99.32 39.80 99.12 39.84Q98.92 39.88 98.68 39.84Q98.44 39.80 98.32 39.68L98.32 39.68Q97.84 39.28 98.52 35.56ZM105 34.96L105 34.96Q102.60 37.80 103.44 38.84L103.44 38.84Q104 37.96 106.80 34.40L106.80 34.40Q107.68 33.32 107.44 33.32L107.44 33.32Q107.12 33.36 105 34.96ZM103.24 40.52L103.24 40.52L102.24 41.52Q102.28 41 102.64 40.28L102.64 40.28Q100.96 39.24 104.60 35.28L104.60 35.28L105.72 34.16Q108.64 31.92 108.64 32.24L108.64 32.24Q108.64 32.40 106.56 34.96L106.56 34.96Q104.48 37.64 103.76 39.12L103.76 39.12Q104.44 39.52 105.84 39.56Q107.24 39.60 109.46 39.44Q111.68 39.28 112.76 39.28L112.76 39.28L111.64 40.40Q110.56 40.40 108.54 40.54Q106.52 40.68 105.56 40.70Q104.60 40.72 103.24 40.52ZM113.24 36.24L112.28 36.80L113.40 35.68Q115.36 34.44 116.98 34.24Q118.60 34.04 118.70 35.10Q118.80 36.16 116.64 38.68L116.64 38.68L115.52 39.80L114.04 41.16Q114.76 41.08 115.84 40.88L115.84 40.88L117.56 40.56Q118.20 40.44 119.28 40.40Q120.36 40.36 121.08 40.60L121.08 40.60L119.96 41.72Q119.20 41.48 118.10 41.54Q117.00 41.60 116.34 41.70Q115.68 41.80 114.60 42Q113.52 42.20 112.80 42.28L112.80 42.28L113.92 41.16L115.96 39.32Q118.48 36.28 117.16 35.52L117.16 35.52Q116.00 34.84 113.24 36.24L113.24 36.24ZM121.16 38.68L121.16 38.68Q123.60 38.24 128 37.12L128 37.12Q128.08 37.08 128.18 36.96Q128.28 36.84 128.36 36.76Q128.44 36.68 128.50 36.60Q128.56 36.52 128.56 36.48Q128.56 36.44 128.48 36.40L128.48 36.40Q125.60 35.76 121.16 38.68ZM129.96 37.48L127.84 38.04Q127.36 38.88 127.04 39.72L127.04 39.72L125.92 40.84Q126.36 39.64 127.32 38.16L127.32 38.16Q122.12 39.48 119.44 39.92L119.44 39.92L120.56 38.80Q126.20 34.52 129.60 35.28L129.60 35.28Q129.72 35.36 129.66 35.46Q129.60 35.56 129.36 35.80L129.36 35.80L129.04 36.12L128.44 37.04L131.08 36.36L129.96 37.48ZM134.44 35L134.44 35Q134.08 37.44 133.72 38.88L133.72 38.88Q133.60 39.32 133.10 40.14Q132.60 40.96 132.48 41.40L132.48 41.40L131.36 42.52Q131.40 41.52 131.16 35.88L131.16 35.88L130.72 36.32Q130.48 34.84 130 33.28L130 33.28L131.12 32.16Q131.24 32.32 131.52 32.60Q131.80 32.88 131.98 33.14Q132.16 33.40 132.24 33.68L132.24 33.68Q132.36 34.16 132.48 40.36L132.48 40.36Q132.56 40.16 132.60 40L132.60 40Q132.84 39.04 133.04 37.92L133.04 37.92L133.40 35.44L133.72 33.32L134.84 32.20Q135.64 33.80 135.96 35.24L135.96 35.24Q136.08 35.72 136.20 35.80Q136.32 35.88 136.96 35.80L136.96 35.80L137.20 35.80L136.08 36.92Q136 36.92 135.84 36.96L135.84 36.96Q135.20 37 135.06 36.92Q134.92 36.84 134.84 36.36L134.84 36.36Q134.68 35.64 134.44 35Z" fill="black"></path></svg>